<svg width="20" height="20" viewBox="0 0 20 20" fill="none" xmlns="http://www.w3.org/2000/svg">
<path d="M18 20H2C1.46957 20 0.960859 19.7366 0.585786 19.2678C0.210714 18.7989 0 18.163 0 17.5V2.39125C0.0224326 1.74724 0.243009 1.13895 0.615678 0.693376C0.988347 0.247804 1.4843 -0.000609048 2 1.1214e-06H18C18.5304 1.1214e-06 19.0391 0.263393 19.4142 0.732234C19.7893 1.20107 20 1.83696 20 2.5V17.5C20 18.163 19.7893 18.7989 19.4142 19.2678C19.0391 19.7366 18.5304 20 18 20ZM2 4.835V17.5H18V4.835L10 11.5L2 4.835ZM2.8 2.5L10 8.5L17.2 2.5H2.8Z" fill="#775396" fill-opacity="0.5"/>
</svg>
