<svg width="20" height="20" viewBox="0 0 20 20" fill="none" xmlns="http://www.w3.org/2000/svg">
<path d="M10 15.0001L11 13.0001V7.85806C12.721 7.41105 14 5.85804 14 4.00003C14 1.79401 12.206 0 10 0C7.794 0 6 1.79401 6 4.00003C6 5.85804 7.279 7.41105 9 7.85806V13.0001L10 15.0001Z" fill="#775396" fill-opacity="0.5"/>
<path d="M14.267 8.56301L13.734 10.491C16.325 11.207 18 12.584 18 14.0001C18 15.8921 14.715 18.0001 10 18.0001C5.285 18.0001 2 15.8921 2 14.0001C2 12.584 3.675 11.207 6.267 10.49L5.734 8.56201C2.197 9.54002 0 11.623 0 14.0001C0 17.3641 4.393 20.0001 10 20.0001C15.607 20.0001 20 17.3641 20 14.0001C20 11.623 17.803 9.54002 14.267 8.56301Z" fill="#775396" fill-opacity="0.5"/>
</svg>
